<svg xmlns="http://www.w3.org/2000/svg" xmlns:xlink="http://www.w3.org/1999/xlink" width="90" zoomAndPan="magnify" viewBox="0 0 67.5 67.499996" height="90" preserveAspectRatio="xMidYMid meet" version="1.0"><defs><clipPath id="4ad53d56b9"><path d="M 1.289062 1.289062 L 66 1.289062 L 66 66 L 1.289062 66 Z M 1.289062 1.289062 " clip-rule="nonzero"/></clipPath></defs><g clip-path="url(#4ad53d56b9)"><path fill="#1e40ff" d="M 20.152344 1.511719 C 16.726562 1.671875 14.386719 2.222656 12.339844 3.023438 C 10.222656 3.847656 8.429688 4.953125 6.644531 6.746094 C 4.859375 8.539062 3.761719 10.335938 2.945312 12.457031 C 2.152344 14.507812 1.613281 16.847656 1.464844 20.277344 C 1.3125 23.707031 1.277344 24.804688 1.292969 33.550781 C 1.308594 42.292969 1.347656 43.390625 1.511719 46.824219 C 1.675781 50.25 2.222656 52.585938 3.023438 54.636719 C 3.847656 56.753906 4.953125 58.542969 6.746094 60.332031 C 8.539062 62.117188 10.335938 63.214844 12.457031 64.03125 C 14.503906 64.824219 16.847656 65.367188 20.273438 65.515625 C 23.707031 65.664062 24.804688 65.699219 33.546875 65.679688 C 42.292969 65.664062 43.386719 65.625 46.820312 65.460938 C 50.246094 65.296875 52.585938 64.75 54.632812 63.953125 C 56.75 63.121094 58.542969 62.019531 60.328125 60.226562 C 62.113281 58.433594 63.210938 56.636719 64.03125 54.515625 C 64.820312 52.46875 65.363281 50.125 65.511719 46.703125 C 65.660156 43.269531 65.695312 42.171875 65.679688 33.429688 C 65.664062 24.683594 65.625 23.589844 65.460938 20.15625 C 65.296875 16.726562 64.753906 14.390625 63.953125 12.339844 C 63.121094 10.222656 62.019531 8.433594 60.226562 6.644531 C 58.433594 4.863281 56.636719 3.761719 54.515625 2.945312 C 52.46875 2.152344 50.125 1.613281 46.699219 1.464844 C 43.265625 1.3125 42.167969 1.277344 33.425781 1.292969 C 24.683594 1.308594 23.585938 1.347656 20.152344 1.511719 M 20.527344 59.714844 C 17.390625 59.578125 15.683594 59.058594 14.546875 58.621094 C 13.042969 58.035156 11.972656 57.339844 10.839844 56.21875 C 9.710938 55.09375 9.011719 54.023438 8.425781 52.523438 C 7.984375 51.386719 7.453125 49.6875 7.304688 46.546875 C 7.144531 43.152344 7.105469 42.132812 7.09375 33.535156 C 7.078125 24.945312 7.105469 23.925781 7.253906 20.527344 C 7.390625 17.390625 7.914062 15.683594 8.351562 14.550781 C 8.933594 13.046875 9.628906 11.972656 10.75 10.84375 C 11.878906 9.714844 12.949219 9.015625 14.449219 8.425781 C 15.585938 7.984375 17.289062 7.457031 20.425781 7.308594 C 23.820312 7.144531 24.835938 7.113281 33.433594 7.09375 C 42.03125 7.078125 43.050781 7.105469 46.445312 7.257812 C 49.582031 7.394531 51.289062 7.914062 52.421875 8.355469 C 53.929688 8.9375 55.003906 9.628906 56.132812 10.753906 C 57.261719 11.878906 57.960938 12.949219 58.546875 14.453125 C 58.988281 15.585938 59.519531 17.289062 59.667969 20.425781 C 59.828125 23.820312 59.863281 24.839844 59.878906 33.433594 C 59.894531 42.03125 59.863281 43.050781 59.714844 46.441406 C 59.578125 49.582031 59.058594 51.289062 58.621094 52.421875 C 58.039062 53.925781 57.34375 55 56.214844 56.128906 C 55.089844 57.253906 54.023438 57.957031 52.515625 58.542969 C 51.386719 58.988281 49.679688 59.515625 46.546875 59.664062 C 43.148438 59.824219 42.132812 59.859375 33.535156 59.875 C 24.941406 59.890625 23.921875 59.859375 20.523438 59.710938 M 46.777344 16.277344 C 46.78125 18.410156 48.515625 20.136719 50.644531 20.128906 C 52.777344 20.128906 54.503906 18.394531 54.503906 16.261719 C 54.5 14.128906 52.761719 12.402344 50.628906 12.40625 C 48.496094 12.40625 46.769531 14.144531 46.773438 16.273438 M 16.953125 33.519531 C 16.972656 42.648438 24.386719 50.035156 33.515625 50.015625 C 42.644531 50 50.035156 42.585938 50.015625 33.457031 C 50 24.328125 42.582031 16.9375 33.453125 16.953125 C 24.324219 16.972656 16.9375 24.386719 16.953125 33.519531 M 22.753906 33.507812 C 22.742188 27.582031 27.539062 22.765625 33.464844 22.753906 C 39.390625 22.742188 44.207031 27.539062 44.21875 33.46875 C 44.230469 39.394531 39.433594 44.210938 33.507812 44.21875 C 27.582031 44.230469 22.765625 39.433594 22.753906 33.507812 " fill-opacity="1" fill-rule="nonzero"/></g></svg>