<svg xmlns="http://www.w3.org/2000/svg" xmlns:xlink="http://www.w3.org/1999/xlink" width="90" zoomAndPan="magnify" viewBox="0 0 67.5 67.499996" height="90" preserveAspectRatio="xMidYMid meet" version="1.0"><defs><clipPath id="a772e6b937"><path d="M 1.414062 1.414062 L 65.441406 1.414062 L 65.441406 65.441406 L 1.414062 65.441406 Z M 1.414062 1.414062 " clip-rule="nonzero"/></clipPath></defs><g clip-path="url(#a772e6b937)"><path fill="#1e40ff" d="M 65.589844 33.503906 C 65.589844 34.554688 65.539062 35.601562 65.4375 36.648438 C 65.332031 37.695312 65.179688 38.730469 64.976562 39.761719 C 64.769531 40.792969 64.515625 41.8125 64.210938 42.816406 C 63.90625 43.824219 63.550781 44.8125 63.148438 45.78125 C 62.746094 46.753906 62.296875 47.703125 61.800781 48.628906 C 61.308594 49.554688 60.765625 50.457031 60.183594 51.332031 C 59.597656 52.203125 58.972656 53.046875 58.308594 53.859375 C 57.640625 54.671875 56.9375 55.449219 56.191406 56.191406 C 55.449219 56.9375 54.671875 57.640625 53.859375 58.308594 C 53.046875 58.972656 52.203125 59.597656 51.332031 60.183594 C 50.457031 60.765625 49.554688 61.308594 48.628906 61.800781 C 47.703125 62.296875 46.753906 62.746094 45.78125 63.148438 C 44.8125 63.550781 43.824219 63.90625 42.816406 64.210938 C 41.8125 64.515625 40.792969 64.769531 39.761719 64.976562 C 38.730469 65.179688 37.695312 65.332031 36.648438 65.4375 C 35.601562 65.539062 34.554688 65.589844 33.503906 65.589844 C 32.453125 65.589844 31.402344 65.539062 30.359375 65.4375 C 29.3125 65.332031 28.273438 65.179688 27.242188 64.976562 C 26.210938 64.769531 25.195312 64.515625 24.1875 64.210938 C 23.183594 63.90625 22.195312 63.550781 21.222656 63.148438 C 20.253906 62.746094 19.304688 62.296875 18.375 61.800781 C 17.449219 61.308594 16.550781 60.765625 15.675781 60.183594 C 14.800781 59.597656 13.957031 58.972656 13.144531 58.308594 C 12.332031 57.640625 11.554688 56.9375 10.8125 56.191406 C 10.070312 55.449219 9.363281 54.671875 8.699219 53.859375 C 8.03125 53.046875 7.40625 52.203125 6.824219 51.332031 C 6.238281 50.457031 5.699219 49.554688 5.203125 48.628906 C 4.707031 47.703125 4.257812 46.753906 3.855469 45.78125 C 3.453125 44.8125 3.101562 43.824219 2.796875 42.816406 C 2.492188 41.8125 2.234375 40.792969 2.03125 39.761719 C 1.824219 38.730469 1.671875 37.695312 1.570312 36.648438 C 1.464844 35.601562 1.414062 34.554688 1.414062 33.503906 C 1.414062 32.453125 1.464844 31.402344 1.570312 30.359375 C 1.671875 29.3125 1.824219 28.273438 2.03125 27.242188 C 2.234375 26.210938 2.492188 25.195312 2.796875 24.1875 C 3.101562 23.183594 3.453125 22.195312 3.855469 21.222656 C 4.257812 20.253906 4.707031 19.304688 5.203125 18.375 C 5.699219 17.449219 6.238281 16.550781 6.824219 15.675781 C 7.40625 14.800781 8.03125 13.957031 8.699219 13.144531 C 9.363281 12.332031 10.070312 11.554688 10.8125 10.8125 C 11.554688 10.070312 12.332031 9.363281 13.144531 8.699219 C 13.957031 8.03125 14.800781 7.40625 15.675781 6.824219 C 16.550781 6.238281 17.449219 5.699219 18.375 5.203125 C 19.304688 4.707031 20.253906 4.257812 21.222656 3.855469 C 22.195312 3.453125 23.183594 3.101562 24.1875 2.796875 C 25.195312 2.492188 26.210938 2.234375 27.242188 2.03125 C 28.273438 1.824219 29.3125 1.671875 30.359375 1.570312 C 31.402344 1.464844 32.453125 1.414062 33.503906 1.414062 C 34.554688 1.414062 35.601562 1.464844 36.648438 1.570312 C 37.695312 1.671875 38.730469 1.824219 39.761719 2.03125 C 40.792969 2.234375 41.8125 2.492188 42.816406 2.796875 C 43.824219 3.101562 44.8125 3.453125 45.78125 3.855469 C 46.753906 4.257812 47.703125 4.707031 48.628906 5.203125 C 49.554688 5.699219 50.457031 6.238281 51.332031 6.824219 C 52.203125 7.40625 53.046875 8.03125 53.859375 8.699219 C 54.671875 9.363281 55.449219 10.070312 56.191406 10.8125 C 56.9375 11.554688 57.640625 12.332031 58.308594 13.144531 C 58.972656 13.957031 59.597656 14.800781 60.183594 15.675781 C 60.765625 16.550781 61.308594 17.449219 61.800781 18.375 C 62.296875 19.304688 62.746094 20.253906 63.148438 21.222656 C 63.550781 22.195312 63.90625 23.183594 64.210938 24.1875 C 64.515625 25.195312 64.769531 26.210938 64.976562 27.242188 C 65.179688 28.273438 65.332031 29.3125 65.4375 30.359375 C 65.539062 31.402344 65.589844 32.453125 65.589844 33.503906 Z M 65.589844 33.503906 " fill-opacity="1" fill-rule="nonzero"/></g><path fill="#25f4ee" d="M 29.242188 28.914062 L 29.242188 27.175781 C 28.660156 27.09375 28.066406 27.046875 27.460938 27.046875 C 20.175781 27.046875 14.25 32.972656 14.25 40.257812 C 14.25 44.730469 16.484375 48.683594 19.890625 51.078125 C 17.691406 48.714844 16.386719 45.550781 16.386719 42.078125 C 16.386719 34.898438 22.101562 29.082031 29.242188 28.914062 Z M 29.242188 28.914062 " fill-opacity="1" fill-rule="nonzero"/><path fill="#25f4ee" d="M 29.554688 48.152344 C 32.804688 48.152344 35.496094 45.527344 35.613281 42.308594 L 35.644531 13.578125 L 40.851562 13.578125 C 40.851562 13.578125 40.84375 13.539062 40.84375 13.539062 C 40.734375 12.949219 40.675781 12.339844 40.675781 11.71875 L 33.496094 11.71875 L 33.484375 40.488281 C 33.367188 43.707031 30.714844 46.292969 27.460938 46.292969 C 26.449219 46.292969 25.503906 46.039062 24.664062 45.601562 C 25.761719 47.121094 27.542969 48.152344 29.558594 48.152344 Z M 29.554688 48.152344 " fill-opacity="1" fill-rule="nonzero"/><path fill="#25f4ee" d="M 50.664062 23.386719 L 50.664062 21.699219 C 48.65625 21.699219 46.792969 21.101562 45.226562 20.078125 C 46.617188 21.679688 48.511719 22.921875 50.664062 23.382812 Z M 50.664062 23.386719 " fill-opacity="1" fill-rule="nonzero"/><path fill="#fe2c55" d="M 45.226562 20.082031 C 43.699219 18.328125 42.769531 16.039062 42.769531 13.535156 L 40.8125 13.535156 C 41.320312 16.269531 42.976562 18.617188 45.226562 20.082031 Z M 45.226562 20.082031 " fill-opacity="1" fill-rule="nonzero"/><path fill="#fe2c55" d="M 27.460938 34.167969 C 24.132812 34.167969 21.386719 36.925781 21.386719 40.253906 C 21.386719 42.570312 22.742188 44.585938 24.660156 45.597656 C 23.945312 44.605469 23.519531 43.394531 23.519531 42.078125 C 23.519531 38.75 26.226562 36.042969 29.554688 36.042969 C 30.175781 36.042969 30.769531 36.148438 31.335938 36.324219 L 31.335938 28.996094 C 30.75 28.914062 30.15625 28.867188 29.554688 28.867188 C 29.449219 28.867188 29.347656 28.871094 29.242188 28.875 L 29.214844 28.875 C 29.214844 28.875 29.195312 34.421875 29.195312 34.421875 C 28.628906 34.246094 28.082031 34.167969 27.460938 34.167969 Z M 27.460938 34.167969 " fill-opacity="1" fill-rule="nonzero"/><path fill="#fe2c55" d="M 50.664062 23.300781 L 50.628906 23.292969 L 50.628906 28.835938 C 46.90625 28.835938 43.445312 27.609375 40.632812 25.589844 L 40.632812 40.253906 C 40.632812 47.542969 34.746094 53.429688 27.460938 53.429688 C 24.648438 53.429688 22.039062 52.578125 19.890625 51.070312 C 22.300781 53.660156 25.742188 55.289062 29.554688 55.289062 C 36.839844 55.289062 42.765625 49.363281 42.765625 42.078125 L 42.765625 27.488281 C 45.582031 29.507812 49.03125 30.699219 52.753906 30.699219 L 52.753906 23.523438 C 52.035156 23.523438 51.335938 23.445312 50.660156 23.300781 Z M 50.664062 23.300781 " fill-opacity="1" fill-rule="nonzero"/><path fill="#ffffff" d="M 40.675781 40.253906 L 40.675781 25.667969 C 43.488281 27.6875 46.941406 28.878906 50.660156 28.878906 L 50.660156 23.300781 C 48.511719 22.839844 46.617188 21.683594 45.222656 20.082031 C 42.972656 18.617188 41.351562 16.269531 40.84375 13.535156 L 35.585938 13.535156 L 35.574219 42.304688 C 35.453125 45.527344 32.800781 48.109375 29.550781 48.109375 C 27.535156 48.109375 25.753906 47.117188 24.660156 45.59375 C 22.738281 44.582031 21.425781 42.570312 21.425781 40.253906 C 21.425781 36.925781 24.132812 34.21875 27.460938 34.21875 C 28.082031 34.21875 28.675781 34.320312 29.242188 34.496094 L 29.242188 28.871094 C 22.097656 29.039062 16.339844 34.894531 16.339844 42.078125 C 16.339844 45.550781 17.691406 48.710938 19.886719 51.074219 C 22.03125 52.582031 24.640625 53.46875 27.460938 53.46875 C 34.746094 53.46875 40.671875 47.542969 40.671875 40.253906 Z M 40.675781 40.253906 " fill-opacity="1" fill-rule="nonzero"/></svg>